<?xml version="1.0" encoding="UTF-8" standalone="no"?>
<!-- Created with Inkscape (http://www.inkscape.org/) -->

<svg
   version="1.1"
   id="svg1"
   width="618.34705"
   height="221.85843"
   viewBox="0 0 618.34705 221.85844"
   xmlns="http://www.w3.org/2000/svg"
   xmlns:svg="http://www.w3.org/2000/svg">
  <defs
     id="defs1" />
  <g
     id="g1"
     transform="translate(-86.022262,-434.29219)">
    <path
       id="path1"
       d="m 85.074,492.113 c -3.894,0 -7.629,-0.656 -11.199,-1.953 -3.574,-1.297 -6.695,-3.242 -9.355,-5.836 l 2.437,-3.312 c 2.723,2.465 5.551,4.281 8.473,5.445 2.925,1.168 6.14,1.758 9.644,1.758 4.418,0 7.973,-0.926 10.672,-2.777 2.688,-1.852 4.035,-4.426 4.035,-7.739 0,-1.566 -0.336,-2.879 -1.019,-3.953 -0.684,-1.07 -1.703,-1.98 -3.071,-2.723 -1.363,-0.746 -3.05,-1.41 -5.066,-1.996 -2.016,-0.589 -4.352,-1.203 -7.012,-1.851 -2.855,-0.649 -5.347,-1.297 -7.457,-1.946 -2.109,-0.652 -3.84,-1.429 -5.203,-2.343 -1.367,-0.91 -2.387,-2.008 -3.07,-3.313 -0.684,-1.297 -1.024,-2.949 -1.024,-4.965 0,-2.535 0.485,-4.738 1.461,-6.625 0.969,-1.882 2.321,-3.441 4.039,-4.675 1.723,-1.231 3.703,-2.157 5.942,-2.778 2.242,-0.613 4.629,-0.926 7.16,-0.926 3.961,0 7.473,0.665 10.523,1.997 3.055,1.332 5.426,3.039 7.11,5.121 l -2.723,2.629 c -1.695,-1.954 -3.883,-3.407 -6.582,-4.387 -2.687,-0.977 -5.566,-1.461 -8.621,-1.461 -1.875,0 -3.648,0.191 -5.301,0.582 -1.66,0.398 -3.105,1.012 -4.34,1.859 -1.23,0.836 -2.207,1.926 -2.925,3.258 -0.707,1.332 -1.071,2.906 -1.071,4.723 0,1.496 0.25,2.699 0.735,3.605 0.484,0.91 1.261,1.688 2.336,2.336 1.07,0.649 2.457,1.219 4.14,1.703 1.688,0.492 3.703,1.032 6.035,1.61 3.184,0.777 6.012,1.531 8.477,2.238 2.473,0.719 4.531,1.594 6.191,2.629 1.653,1.047 2.922,2.273 3.797,3.703 0.875,1.434 1.313,3.25 1.313,5.457 0,4.547 -1.77,8.172 -5.309,10.859 -3.535,2.7 -8.266,4.047 -14.172,4.047"
       style="fill:#ed8426;fill-opacity:1;fill-rule:nonzero;stroke:none"
       transform="scale(1.3333333)" />
    <path
       id="path2"
       d="m 157.254,463.863 c -0.195,-2.984 -0.863,-5.718 -1.996,-8.183 -1.141,-2.461 -2.602,-4.59 -4.383,-6.379 -1.793,-1.781 -3.848,-3.184 -6.184,-4.188 -2.343,-1.011 -4.843,-1.511 -7.507,-1.511 -2.664,0 -5.161,0.5 -7.496,1.511 -2.336,1.004 -4.403,2.407 -6.184,4.188 -1.789,1.789 -3.219,3.933 -4.289,6.433 -1.074,2.5 -1.703,5.204 -1.895,8.129 z m -19.871,28.25 c -3.571,0 -6.883,-0.699 -9.934,-2.101 -3.054,-1.391 -5.699,-3.313 -7.941,-5.742 -2.238,-2.438 -3.996,-5.239 -5.258,-8.422 -1.27,-3.184 -1.902,-6.598 -1.902,-10.231 0,-3.57 0.632,-6.933 1.902,-10.082 1.262,-3.148 3,-5.906 5.207,-8.277 2.215,-2.367 4.824,-4.235 7.844,-5.602 3.015,-1.367 6.285,-2.051 9.789,-2.051 3.57,0 6.883,0.7 9.937,2.102 3.051,1.391 5.68,3.277 7.883,5.648 2.215,2.368 3.938,5.125 5.164,8.274 1.238,3.156 1.852,6.476 1.852,9.988 v 1.219 c 0,0.484 -0.028,0.797 -0.094,0.926 h -44.418 c 0.191,2.922 0.875,5.629 2.043,8.129 1.176,2.5 2.645,4.66 4.438,6.476 1.781,1.828 3.847,3.254 6.179,4.289 2.336,1.039 4.836,1.559 7.5,1.559 1.754,0 3.477,-0.242 5.16,-0.727 1.696,-0.492 3.27,-1.16 4.731,-2 1.465,-0.843 2.762,-1.867 3.894,-3.066 1.141,-1.203 2.032,-2.52 2.68,-3.945 l 4.289,1.168 c -0.719,1.816 -1.773,3.492 -3.164,5.015 -1.402,1.524 -3.027,2.844 -4.879,3.942 -1.851,1.109 -3.875,1.964 -6.086,2.586 -2.207,0.617 -4.48,0.925 -6.816,0.925"
       style="fill:#ed8426;fill-opacity:1;fill-rule:nonzero;stroke:none"
       transform="scale(1.3333333)" />
    <path
       id="path3"
       d="m 196.613,444.871 c -4.551,0.129 -8.527,1.473 -11.933,4.039 -3.418,2.567 -5.805,6.09 -7.164,10.567 v 31.66 h -4.868 v -50.649 h 4.668 v 12.469 c 1.758,-3.57 4.075,-6.484 6.973,-8.727 2.887,-2.238 5.984,-3.519 9.297,-3.847 0.648,-0.059 1.234,-0.094 1.754,-0.094 h 1.273 z"
       style="fill:#ed8426;fill-opacity:1;fill-rule:nonzero;stroke:none"
       transform="scale(1.3333333)" />
    <path
       id="path4"
       d="m 229.828,444.871 c -4.551,0.129 -8.527,1.473 -11.933,4.039 -3.418,2.567 -5.805,6.09 -7.161,10.567 v 31.66 h -4.871 v -50.649 h 4.672 v 12.469 c 1.754,-3.57 4.074,-6.484 6.969,-8.727 2.887,-2.238 5.984,-3.519 9.297,-3.847 0.648,-0.059 1.234,-0.094 1.754,-0.094 h 1.273 z"
       style="fill:#ed8426;fill-opacity:1;fill-rule:nonzero;stroke:none"
       transform="scale(1.3333333)" />
    <path
       id="path5"
       d="m 251.836,488.215 c 3.762,0 7.219,-0.711 10.379,-2.145 3.144,-1.429 5.558,-3.312 7.254,-5.648 1.039,-1.367 1.554,-2.664 1.554,-3.899 v -8.961 c -2.332,-0.906 -4.773,-1.589 -7.304,-2.039 -2.535,-0.457 -5.164,-0.683 -7.887,-0.683 -2.535,0 -4.844,0.277 -6.918,0.82 -2.078,0.555 -3.867,1.324 -5.355,2.293 -1.497,0.977 -2.645,2.16 -3.457,3.555 -0.813,1.398 -1.219,2.941 -1.219,4.625 0,1.695 0.32,3.289 0.976,4.773 0.649,1.496 1.555,2.778 2.723,3.848 1.168,1.074 2.551,1.922 4.145,2.535 1.589,0.621 3.293,0.926 5.109,0.926 m -0.977,3.898 c -2.336,0 -4.515,-0.406 -6.519,-1.218 -2.016,-0.813 -3.789,-1.918 -5.313,-3.313 -1.531,-1.398 -2.715,-3.051 -3.554,-4.973 -0.844,-1.91 -1.27,-3.968 -1.27,-6.183 0,-2.203 0.52,-4.219 1.555,-6.035 1.039,-1.817 2.492,-3.399 4.344,-4.731 1.847,-1.32 4.074,-2.367 6.668,-3.113 2.601,-0.742 5.457,-1.121 8.578,-1.121 2.722,0 5.464,0.25 8.222,0.734 2.758,0.485 5.25,1.149 7.453,1.996 v -4.972 c 0,-4.801 -1.363,-8.614 -4.089,-11.442 -2.723,-2.828 -6.426,-4.238 -11.102,-4.238 -2.473,0 -5.086,0.519 -7.844,1.558 -2.758,1.04 -5.57,2.536 -8.422,4.481 l -1.851,-3.313 c 6.492,-4.41 12.66,-6.625 18.504,-6.625 6.105,0 10.906,1.774 14.418,5.309 3.5,3.547 5.258,8.434 5.258,14.66 v 24.75 c 0,1.617 0.718,2.43 2.144,2.43 v 4.383 c -0.328,0.062 -0.668,0.113 -1.019,0.148 -0.364,0.035 -0.668,0.051 -0.926,0.051 -1.309,0 -2.344,-0.441 -3.121,-1.324 -0.782,-0.871 -1.231,-1.926 -1.36,-3.164 v -4.188 c -2.343,3.055 -5.328,5.391 -8.968,7.016 -3.633,1.625 -7.567,2.437 -11.786,2.437"
       style="fill:#ed8426;fill-opacity:1;fill-rule:nonzero;stroke:none"
       transform="scale(1.3333333)" />
    <path
       id="path6"
       d="m 365.121,491.137 h -4.867 v -28.25 c 0,-6.426 -0.988,-11.168 -2.969,-14.219 -1.988,-3.051 -5.023,-4.582 -9.113,-4.582 -2.074,0 -4.055,0.398 -5.942,1.176 -1.886,0.777 -3.605,1.867 -5.164,3.258 -1.554,1.402 -2.906,3.054 -4.035,4.964 -1.144,1.922 -2.035,4.047 -2.683,6.383 v 31.27 h -4.868 v -28.25 c 0,-6.489 -0.976,-11.254 -2.921,-14.27 -1.946,-3.019 -4.973,-4.531 -9.063,-4.531 -2.078,0 -4.039,0.379 -5.891,1.125 -1.851,0.742 -3.554,1.812 -5.113,3.215 -1.562,1.394 -2.937,3.054 -4.14,4.965 -1.204,1.918 -2.125,4.047 -2.778,6.382 v 31.364 h -4.867 v -50.649 h 4.574 v 12.071 c 2.078,-4.09 4.809,-7.262 8.184,-9.539 3.379,-2.274 7.105,-3.415 11.207,-3.415 4.277,0 7.754,1.27 10.418,3.805 2.664,2.535 4.254,5.836 4.773,9.938 4.801,-9.16 11.426,-13.743 19.875,-13.743 5.516,0 9.461,1.973 11.828,5.899 2.372,3.926 3.555,9.434 3.555,16.508 z"
       style="fill:#ed8426;fill-opacity:1;fill-rule:nonzero;stroke:none"
       transform="scale(1.3333333)" />
    <path
       id="path7"
       d="m 421.227,463.863 c -0.2,-2.984 -0.864,-5.718 -1.997,-8.183 -1.14,-2.461 -2.601,-4.59 -4.386,-6.379 -1.789,-1.781 -3.848,-3.184 -6.18,-4.188 -2.344,-1.011 -4.844,-1.511 -7.508,-1.511 -2.664,0 -5.164,0.5 -7.496,1.511 -2.336,1.004 -4.402,2.407 -6.183,4.188 -1.789,1.789 -3.219,3.933 -4.289,6.433 -1.075,2.5 -1.708,5.204 -1.895,8.129 z m -19.872,28.25 c -3.574,0 -6.882,-0.699 -9.937,-2.101 -3.051,-1.391 -5.699,-3.313 -7.938,-5.742 -2.242,-2.438 -3.996,-5.239 -5.257,-8.422 -1.27,-3.184 -1.903,-6.598 -1.903,-10.231 0,-3.57 0.633,-6.933 1.903,-10.082 1.261,-3.148 3,-5.906 5.207,-8.277 2.211,-2.367 4.824,-4.235 7.843,-5.602 3.016,-1.367 6.286,-2.051 9.789,-2.051 3.571,0 6.883,0.7 9.934,2.102 3.055,1.391 5.684,3.277 7.887,5.648 2.215,2.368 3.937,5.125 5.164,8.274 1.238,3.156 1.851,6.476 1.851,9.988 v 1.219 c 0,0.484 -0.027,0.797 -0.097,0.926 h -44.414 c 0.191,2.922 0.875,5.629 2.043,8.129 1.175,2.5 2.644,4.66 4.433,6.476 1.782,1.828 3.848,3.254 6.184,4.289 2.336,1.039 4.836,1.559 7.5,1.559 1.754,0 3.476,-0.242 5.16,-0.727 1.695,-0.492 3.27,-1.16 4.731,-2 1.46,-0.843 2.757,-1.867 3.894,-3.066 1.141,-1.203 2.031,-2.52 2.68,-3.945 l 4.289,1.168 c -0.719,1.816 -1.774,3.492 -3.168,5.015 -1.399,1.524 -3.024,2.844 -4.875,3.942 -1.852,1.109 -3.875,1.964 -6.09,2.586 -2.203,0.617 -4.477,0.925 -6.813,0.925"
       style="fill:#ed8426;fill-opacity:1;fill-rule:nonzero;stroke:none"
       transform="scale(1.3333333)" />
    <path
       id="path8"
       d="m 478.016,491.137 h -4.868 v -28.25 c 0,-6.559 -0.925,-11.332 -2.777,-14.313 -1.848,-2.992 -4.789,-4.488 -8.82,-4.488 -2.145,0 -4.27,0.398 -6.383,1.176 -2.109,0.777 -4.07,1.883 -5.887,3.312 -1.816,1.426 -3.406,3.094 -4.773,5.016 -1.367,1.91 -2.371,3.976 -3.02,6.183 v 31.364 h -4.867 v -50.649 h 4.574 v 12.071 c 1.035,-1.946 2.317,-3.707 3.848,-5.301 1.523,-1.59 3.242,-2.957 5.164,-4.098 1.91,-1.133 3.941,-2.008 6.086,-2.629 2.145,-0.613 4.352,-0.926 6.625,-0.926 5.516,0 9.418,1.938 11.691,5.805 2.266,3.856 3.407,9.399 3.407,16.602 z"
       style="fill:#ed8426;fill-opacity:1;fill-rule:nonzero;stroke:none"
       transform="scale(1.3333333)" />
    <path
       id="path9"
       d="m 514.84,488.699 c -0.262,0.137 -0.703,0.379 -1.317,0.735 -0.621,0.355 -1.398,0.699 -2.343,1.019 -0.942,0.328 -1.989,0.625 -3.164,0.883 -1.168,0.25 -2.43,0.391 -3.797,0.391 -1.367,0 -2.645,-0.2 -3.848,-0.59 -1.203,-0.387 -2.258,-0.977 -3.164,-1.754 -0.91,-0.781 -1.625,-1.723 -2.145,-2.821 -0.519,-1.105 -0.777,-2.402 -0.777,-3.898 v -38.18 h -7.109 v -3.996 h 7.109 v -17.34 h 4.867 v 17.34 h 11.786 v 3.996 h -11.786 v 37.012 c 0,1.883 0.649,3.293 1.953,4.234 1.297,0.946 2.762,1.411 4.375,1.411 2.016,0 3.754,-0.336 5.219,-1.02 1.461,-0.683 2.348,-1.125 2.68,-1.312 z"
       style="fill:#ed8426;fill-opacity:1;fill-rule:nonzero;stroke:none"
       transform="scale(1.3333333)" />
    <path
       id="path10"
       d="m 523.41,440.488 h 4.867 v 50.649 h -4.867 z m 0,-20.461 h 4.867 v 8.969 h -4.867 z"
       style="fill:#ed8426;fill-opacity:1;fill-rule:nonzero;stroke:none"
       transform="scale(1.3333333)" />
    <path
       id="path11"
       d="m 156.25,401.195 c -1.312,2.207 -2.812,4.344 -4.504,6.375 -17.406,20.95 -48.492,23.821 -69.437,6.414 -20.942,-17.402 -23.809,-48.496 -6.407,-69.437 17.407,-20.945 48.493,-23.817 69.438,-6.41 4.969,4.125 8.926,9.023 11.812,14.375 -2.566,-4.262 -5.871,-8.164 -9.91,-11.516 -19.41,-16.125 -48.222,-13.469 -64.347,5.942 -16.125,19.41 -13.473,48.214 5.933,64.335 19.406,16.137 48.223,13.477 64.348,-5.929 1.109,-1.344 2.136,-2.723 3.074,-4.149"
       style="fill:#233769;fill-opacity:1;fill-rule:nonzero;stroke:none"
       transform="scale(1.3333333)" />
    <path
       id="path12"
       d="m 153.523,401.246 c -1.3,2.063 -2.777,4.055 -4.437,5.945 -17.07,19.465 -46.785,21.422 -66.383,4.375 -19.586,-17.043 -21.629,-46.648 -4.562,-66.105 17.07,-19.465 46.789,-21.426 66.382,-4.379 4.645,4.039 8.309,8.793 10.95,13.945 -2.356,-4.109 -5.422,-7.898 -9.2,-11.179 -18.156,-15.797 -45.703,-13.981 -61.515,4.054 -15.817,18.036 -13.93,45.461 4.226,61.254 18.157,15.801 45.704,13.989 61.516,-4.047 1.09,-1.25 2.102,-2.535 3.023,-3.863"
       style="fill:#233769;fill-opacity:1;fill-rule:nonzero;stroke:none"
       transform="scale(1.3333333)" />
    <path
       id="path13"
       d="m 178.73,382.961 c -0.562,1.219 0.282,2.637 1.575,2.637 h 41.593 c 1.293,0 2.141,-1.426 1.567,-2.645 L 201.75,336.609 c -0.305,-0.648 -1.23,-0.644 -1.531,0.004 z m 24.192,-55.141 44.273,94.715 c 0.571,1.219 -0.277,2.645 -1.57,2.645 h -0.504 c -0.664,0 -1.273,-0.395 -1.566,-1.02 l -16.86,-35.668 c -0.297,-0.625 -0.902,-1.019 -1.566,-1.019 h -48.164 c -0.668,0 -1.274,0.398 -1.567,1.027 l -16.617,35.648 c -0.293,0.633 -0.902,1.032 -1.566,1.032 -1.293,0 -2.141,-1.426 -1.57,-2.645 l 44.14,-94.711 c 0.637,-1.371 2.496,-1.375 3.137,-0.004"
       style="fill:#233769;fill-opacity:1;fill-rule:nonzero;stroke:none"
       transform="scale(1.3333333)" />
    <path
       id="path14"
       d="m 262.711,425.723 -1.957,-1.434 1.039,-0.203 -1.047,0.066 c -0.012,-0.144 -0.074,-0.621 -0.176,-1.386 -3.254,-25.012 -7.363,-68.508 1.707,-78.789 l 2.543,2.242 c -5.886,6.676 -6.218,35.129 -0.886,76.109 0.062,0.473 0.121,0.914 0.14,1.313 h 0.008 -0.008 c 0.063,1.117 -0.16,1.886 -1.363,2.082"
       style="fill:#233769;fill-opacity:1;fill-rule:nonzero;stroke:none"
       transform="scale(1.3333333)" />
    <path
       id="path15"
       d="m 262.895,379.18 c 0.929,1.582 1.992,3.117 3.195,4.578 12.355,15.043 34.422,17.101 49.289,4.605 14.863,-12.496 16.898,-34.828 4.547,-49.863 -12.356,-15.043 -34.422,-17.102 -49.289,-4.605 -3.528,2.964 -6.336,6.48 -8.387,10.324 1.824,-3.059 4.172,-5.864 7.035,-8.27 13.777,-11.578 34.235,-9.672 45.68,4.266 11.445,13.937 9.562,34.621 -4.215,46.203 -13.777,11.582 -34.23,9.676 -45.676,-4.262 -0.789,-0.965 -1.515,-1.957 -2.179,-2.976"
       style="fill:#233769;fill-opacity:1;fill-rule:nonzero;stroke:none"
       transform="scale(1.3333333)" />
    <path
       id="path16"
       d="m 263.414,379.934 c 0.82,1.582 1.774,3.121 2.863,4.593 11.207,15.192 32.535,18.336 47.645,7.024 15.101,-11.313 18.262,-32.801 7.058,-47.985 -11.207,-15.191 -32.535,-18.336 -47.644,-7.023 -3.582,2.68 -6.496,5.937 -8.691,9.547 1.933,-2.863 4.359,-5.453 7.273,-7.629 14,-10.481 33.77,-7.57 44.148,6.504 10.383,14.078 7.457,33.98 -6.539,44.465 -14,10.484 -33.769,7.574 -44.152,-6.504 -0.715,-0.973 -1.367,-1.969 -1.961,-2.992"
       style="fill:#233769;fill-opacity:1;fill-rule:nonzero;stroke:none"
       transform="scale(1.3333333)" />
    <path
       id="path17"
       d="m 422.602,396.238 c -0.934,2.141 -2.04,4.242 -3.329,6.274 -13.246,20.902 -40.578,26.996 -61.05,13.609 -20.465,-13.387 -26.321,-41.191 -13.075,-62.09 13.25,-20.902 40.582,-26.996 61.055,-13.609 4.852,3.176 8.891,7.16 12.027,11.676 -2.734,-3.567 -6.089,-6.723 -10.035,-9.301 -18.968,-12.402 -44.304,-6.758 -56.574,12.609 -12.273,19.371 -6.855,45.125 12.113,57.532 18.969,12.41 44.301,6.765 56.575,-12.606 0.843,-1.336 1.609,-2.703 2.293,-4.094"
       style="fill:#233769;fill-opacity:1;fill-rule:nonzero;stroke:none"
       transform="scale(1.3333333)" />
    <path
       id="path18"
       d="m 341.121,378.402 c -0.012,2.457 0.156,4.946 0.531,7.442 3.832,25.703 27.352,43.058 52.539,38.769 25.18,-4.293 42.493,-28.613 38.661,-54.308 -3.832,-25.703 -27.356,-43.059 -52.543,-38.77 -5.969,1.02 -11.508,3.164 -16.403,6.192 4.114,-2.286 8.645,-3.918 13.5,-4.743 23.336,-3.972 45.141,12.114 48.692,35.926 3.547,23.817 -12.485,46.348 -35.821,50.32 -23.339,3.981 -45.144,-12.101 -48.695,-35.918 -0.242,-1.644 -0.398,-3.281 -0.461,-4.91"
       style="fill:#233769;fill-opacity:1;fill-rule:nonzero;stroke:none"
       transform="scale(1.3333333)" />
  </g>
</svg>
