<?xml version="1.0" encoding="UTF-8" standalone="no"?>
<!-- Created with Inkscape (http://www.inkscape.org/) -->

<svg
   version="1.1"
   id="svg1"
   width="344.52353"
   height="522.29877"
   viewBox="0 0 344.52353 522.29879"
   xmlns="http://www.w3.org/2000/svg"
   xmlns:svg="http://www.w3.org/2000/svg">
  <defs
     id="defs1" />
  <g
     id="g1"
     transform="translate(-220.57175,-298.80959)">
    <path
       id="path1"
       d="m 421.277,334.637 c -1.539,-12.094 -5.234,-24.145 -11.273,-35.68 -28.82,-55.055 -99.891,-77.445 -158.766,-50.023 -58.859,27.441 -83.23,94.293 -54.426,149.343 28.809,55.039 99.895,77.43 158.754,50.008 4.254,-1.992 8.329,-4.18 12.227,-6.57 -5.605,3.773 -11.605,7.176 -17.977,10.148 -63.535,29.59 -140.242,5.426 -171.328,-53.965 -31.082,-59.41 -4.781,-131.562 58.735,-161.156 63.531,-29.594 140.238,-5.426 171.324,53.965 7.406,14.168 11.566,29.055 12.73,43.93"
       style="fill:#e94e2c;fill-opacity:1;fill-rule:nonzero;stroke:none"
       transform="scale(1.3333333)" />
    <path
       id="path2"
       d="m 419.324,338.023 c -1.476,-11.812 -5.047,-23.585 -10.886,-34.851 -27.876,-53.77 -96.727,-75.578 -153.817,-48.719 -57.074,26.875 -80.762,92.231 -52.906,146 27.859,53.75 96.73,75.559 153.805,48.699 4.125,-1.949 8.078,-4.093 11.855,-6.433 -5.434,3.695 -11.254,7.027 -17.434,9.937 -61.601,28.985 -135.918,5.449 -165.984,-52.558 -30.062,-58.024 -4.496,-128.559 57.094,-157.547 61.605,-28.985 135.918,-5.449 165.984,52.558 7.164,13.836 11.176,28.379 12.289,42.914"
       style="fill:#e94e2c;fill-opacity:1;fill-rule:nonzero;stroke:none"
       transform="scale(1.3333333)" />
    <path
       id="path3"
       d="m 389.199,483.613 c -2.648,4.61 -5.687,9.082 -9.137,13.336 -35.468,43.848 -100.257,50.239 -144.726,14.278 -44.445,-35.954 -51.734,-100.657 -16.27,-144.485 35.469,-43.844 100.258,-50.238 144.723,-14.277 10.543,8.519 19.008,18.672 25.266,29.769 -5.539,-8.836 -12.606,-16.918 -21.176,-23.839 -41.203,-33.317 -101.258,-27.399 -134.117,13.23 -32.86,40.625 -26.121,100.563 15.082,133.875 41.195,33.332 101.25,27.414 134.109,-13.211 2.262,-2.809 4.352,-5.699 6.246,-8.676"
       style="fill:#233769;fill-opacity:1;fill-rule:nonzero;stroke:none"
       transform="scale(1.3333333)" />
    <path
       id="path4"
       d="m 387.43,482.707 c -2.602,4.285 -5.567,8.434 -8.914,12.371 -34.411,40.563 -95.481,45.156 -136.414,10.258 -40.918,-34.895 -46.204,-96.074 -11.797,-136.621 34.406,-40.563 95.476,-45.156 136.414,-10.258 9.703,8.273 17.418,18.031 23.031,28.637 -4.996,-8.453 -11.441,-16.235 -19.332,-22.953 -37.93,-32.332 -94.539,-28.082 -126.414,9.504 -31.879,37.582 -26.996,94.257 10.934,126.589 37.925,32.344 94.531,28.098 126.41,-9.488 2.195,-2.598 4.226,-5.277 6.082,-8.039"
       style="fill:#233769;fill-opacity:1;fill-rule:nonzero;stroke:none"
       transform="scale(1.3333333)" />
    <path
       id="path5"
       d="m 176.621,506.133 c 1.164,11.656 4.414,23.336 9.938,34.582 26.359,53.676 94.351,77.125 151.886,52.387 57.52,-24.754 82.793,-88.317 56.446,-141.989 -26.348,-53.66 -94.356,-77.109 -151.871,-52.371 -4.157,1.797 -8.149,3.789 -11.973,5.981 5.512,-3.473 11.391,-6.578 17.617,-9.262 62.082,-26.695 135.465,-1.387 163.898,56.519 28.434,57.918 1.157,126.52 -60.914,153.219 -62.086,26.696 -135.468,1.387 -163.902,-56.519 -6.773,-13.809 -10.391,-28.223 -11.125,-42.547"
       style="fill:#ed8426;fill-opacity:1;fill-rule:nonzero;stroke:none"
       transform="scale(1.3333333)" />
    <path
       id="path6"
       d="m 181.789,513.078 c 1.934,11.113 5.863,22.106 11.949,32.524 29.051,49.726 95.969,67.566 149.5,39.851 53.512,-27.73 73.36,-90.504 44.324,-140.234 -29.031,-49.711 -95.968,-67.551 -149.48,-39.832 -3.867,2.011 -7.562,4.199 -11.082,6.562 5.051,-3.711 10.48,-7.097 16.273,-10.101 57.762,-29.91 129.989,-10.657 161.321,42.988 31.332,53.664 9.91,121.414 -47.836,151.324 -57.762,29.906 -129.992,10.656 -161.324,-42.992 -7.465,-12.797 -11.942,-26.387 -13.645,-40.09"
       style="fill:#ed8426;fill-opacity:1;fill-rule:nonzero;stroke:none"
       transform="scale(1.3333333)" />
  </g>
</svg>
